# xmcd
#
# Track frame offsets:
#	150
#	11797
#	23262
#	40602
#	54590
#	66527
#	81620
#	94850
#	108027
#	125982
#	136250
#	149010
#	160132
#	171100
#	182615
#	194385
#	207812
#	217357
#	228520
#
# Disc length: 3311 seconds
#
# Revision: 1
# Processed by: cddbd v1.5.1PL2 Copyright (c) Steve Scherf et al.
# Submitted via: audiograbber 1.83.01
#
DISCID=190ced13
DTITLE=Various Artist - Essential Country Greats, The
DYEAR=2003
DGENRE=Country
TTITLE0=Roger Miller - Little green apples
TTITLE1=George Jones - Window up above.  The
TTITLE2=Bobby Bare - Sylvia's mother
TTITLE3=Roy Clark - Daddy don't you walk so fast
TTITLE4=Tommy Overstreet - Gwen (Congradulations)
TTITLE5=Hank Thompson - Country Bumpkin
TTITLE6=Billy Walker - Cross the Brazos at Waco
TTITLE7=Billie Jo Spears - It could 'a been me
TTITLE8=Bill Anderson - Place in the country.  A,
TTITLE9=Jordinaires - Break my mind
TTITLE10=Jerry Wallace - Shutters and boards
TTITLE11=Joe Stampley - Soul song
TTITLE12=George Jones - Accidentally on purpose
TTITLE13=Bobby Bare - That's how I got to Memphis
TTITLE14=Tommy Overstreet - Heaven is my woman's love
TTITLE15=Roy Clark - Come live with me
TTITLE16=Diana Trask - Say when
TTITLE17=Hank Thompson - Rednecks, whitesocks and blue ribbon beer
TTITLE18=Glen Campbell - Live Medley: Wichita Lineman, Galveston, Country boy
EXTD=CD 3 of a set of 3.
EXTT0=
EXTT1=
EXTT2=
EXTT3=
EXTT4=
EXTT5=
EXTT6=
EXTT7=
EXTT8=
EXTT9=
EXTT10=
EXTT11=
EXTT12=
EXTT13=
EXTT14=
EXTT15=
EXTT16=
EXTT17=
EXTT18=
PLAYORDER=
